<?xml version="1.0" standalone="no"?><!DOCTYPE svg PUBLIC "-//W3C//DTD SVG 1.1//EN" "http://www.w3.org/Graphics/SVG/1.1/DTD/svg11.dtd"><svg t="1715889770946" class="icon" viewBox="0 0 1024 1024" version="1.1" xmlns="http://www.w3.org/2000/svg" p-id="7230" xmlns:xlink="http://www.w3.org/1999/xlink" width="200" height="200"><path d="M655.36 368.853333a32 32 0 0 1 0 45.248l-98.090667 98.005334L655.36 610.133333a32 32 0 0 1-45.226667 45.269334L512 557.333333l-98.133333 98.048a32 32 0 1 1-45.226667-45.269333l98.090667-98.005333-98.090667-98.005334a32 32 0 0 1 45.226667-45.269333l98.133333 98.048 98.133333-98.048a32 32 0 0 1 45.226667 0z" fill="#C20E4D" p-id="7231"></path><path d="M138.666667 512c0-206.186667 167.146667-373.333333 373.333333-373.333333S885.333333 305.813333 885.333333 512 718.186667 885.333333 512 885.333333 138.666667 718.186667 138.666667 512zM512 202.666667C341.162667 202.666667 202.666667 341.162667 202.666667 512S341.162667 821.333333 512 821.333333 821.333333 682.837333 821.333333 512 682.837333 202.666667 512 202.666667z" fill="#C20E4D" p-id="7232"></path></svg>